<svg xmlns="http://www.w3.org/2000/svg" xmlns:xlink="http://www.w3.org/1999/xlink" width="213.691" height="285.751" viewBox="0 0 213.691 285.751">
  <defs>
    <radialGradient id="radial-gradient" cx="0.692" cy="0.912" r="1.001" gradientTransform="matrix(-0.114, -0.994, 2.897, -0.331, -1.87, 1.901)" gradientUnits="objectBoundingBox">
      <stop offset="0" stop-color="#520042"/>
      <stop offset="0.567" stop-color="#643f8b"/>
      <stop offset="1" stop-color="#00a1b9"/>
    </radialGradient>
    <filter id="Path_23" x="0" y="0" width="213.691" height="285.751" filterUnits="userSpaceOnUse">
      <feOffset dy="3" input="SourceAlpha"/>
      <feGaussianBlur stdDeviation="3" result="blur"/>
      <feFlood flood-opacity="0.161"/>
      <feComposite operator="in" in2="blur"/>
      <feComposite in="SourceGraphic"/>
    </filter>
  </defs>
  <g id="Group_99" data-name="Group 99" transform="translate(9 6)" opacity="0.764">
    <g transform="matrix(1, 0, 0, 1, -9, -6)" filter="url(#Path_23)">
      <path id="Path_23-2" data-name="Path 23" d="M94.056,188.035c1.363-9.86,3.766-19.72,3.747-29.561-.019-9.443-2.536-18.887-3.993-28.539,1.476-.889,2.763-1.665,4.92-2.971,1.325,2.99,2.593,5.45,3.539,8.043.984,2.725,1.684,5.545,3.823,8.516,1.93-6.169,3.861-12.358,5.659-18.149,6.926-.738,8.119.114,8.365,5.356.265,5.375-1.476,10.219-3.823,14.951-2.877,5.772-5.6,11.6-9.765,20.287-.587,9.481-1.628,22.2-2.1,34.935-.473,12.793-.416,25.605-.568,38.058-4.163,2.612-5.867.53-7.475-2.385-3.8-6.964-7.475-14.023-11.714-20.723-3.993-6.3-8.686-12.15-12.963-18.281-1.135-1.609-2.858-3.652-2.612-5.223.681-4.315-2.555-5.772-4.883-7.683-3.615-2.971-8.081-4.939-10.352-9.254.3-3.955.606-7.778.946-12.339-4.637-3.52-9.557-6.832-13.966-10.73a98.378,98.378,0,0,1-11.7-12.131c-5.242-6.567-10.257-13.191-16.994-18.433C6.813,117.616,1.8,112.941,0,106.015c3.35-6.567,8.819-.738,13.418-2.687-.227-2.347-.473-4.656-.719-7.1,1.684-3.709,4.5-3.179,7.286-1.571a22.56,22.56,0,0,1,11.071,14.818c.738,3.085,1.06,6.264,1.533,9.387a29.593,29.593,0,0,0,6.359,13.985c3.8,4.883,6.889,10.314,11.487,14.534,5.583-4.2,8.27-14.288,4.731-20.628-6.378-11.449-12.377-23.277-22.918-31.794a33.293,33.293,0,0,1-5.091-5.469c-1.7-2.157-2.214-4.5.606-6.832h6.718c.568-2.422,1.079-4.674,1.628-7,3.974-.549,5.129,2.29,6.018,4.655,2.082,5.488,3.709,11.147,5.545,16.73,1.268,3.861,2.555,7.721,3.974,11.525a21.549,21.549,0,0,0,2.328,3.652,29.952,29.952,0,0,0-4.712-28.671c-4.258-5.242-9.349-9.8-14.042-14.7C31.661,65.137,27.365,61.9,26.873,55.2c2.725-.7,5.375-1.363,8.27-2.1.341-1.8.719-3.747,1.211-6.321a79.365,79.365,0,0,0-5.961-6.794c-6.378-5.961-9.481-13.758-12.282-21.669-.852-2.4-.4-5.28-.511-7.683,5.2-2.574,6.321-2.574,9.122.908,3.066,3.8,5.81,7.873,8.686,11.828a30.818,30.818,0,0,0,4.788,5.6c.927-8.819-5.337-16.162-4.618-24.7,6.983-6.908,13.7-5.356,15.859,4.012,2.29,9.917,3.747,20.041,5.677,30.034,1.382,7.116,2.82,14.231,4.466,21.271,1.192,5.072,2.347,6.7,5.715,9.576,4.031-1.665,1.325-6.378,3.615-8.138-1.836-9.576-3.539-18.641-5.318-27.706-1.363-6.964-1.817-13.948-.095-20.912a61.188,61.188,0,0,1,2.214-6.056C69.605,7.833,70.76,8.7,72.066,9.725c1.344-1,2.725-2.063,4.069-3.085,5.28,1.968,4.693,6.151,4.731,10.257q.142,18.338.625,36.676c.057,2.082,1.135,4.126,1.7,6.075,4.3-.208,6.207-2.612,6.945-5.488,1.1-4.315,2.725-9.046,1.949-13.191-1.855-9.936-.114-19.757-.833-29.39,4.977-3.8,6.624-3.5,8.743,1.476.889,2.044,1.628,4.163,2.517,6.491,1.325-.057,2.4-.038,3.463-.189,1.079-.17,2.139-.53,3.558-.908,4.674,5.015,4.126,10.976,2.8,16.635a33.5,33.5,0,0,1-5.11,11c-3.539,5.091-5.886,11.052-11.241,14.913-1.268.927-1.079,3.88-1.817,6.945C99.923,72.253,98.3,82,105.809,87.9c1.722-2.649,3.425-4.656,4.447-6.964,2.1-4.75,3.728-9.708,5.734-14.515,1.438-3.463,3.709-5.753,7.551-4.182,4.2,2.971-1.022,9.425,5.261,11.2,2.668-.852,5.734-1.817,9.443-2.99-1.079,5.2-2.025,9.784-3.028,14.61-3.539,3.558-9.141,5.053-12.188,9.992-1.325,2.139-4.05,3.69-6.453,4.807-5.2,2.422-9.046,6.6-13.626,9.822-6.964,4.883-10.73,12.188-14.1,19.644-5.318,11.752-6.51,23.921-2.839,36.392,2.2,7.494,4.58,14.932,6.889,22.407A6.188,6.188,0,0,0,94.056,188.035Zm-9.973,17.259c3.747-6.472-2.952-12.982.246-18.565-.889-1.211-2.025-2.214-2.5-3.463-1.571-4.239-2.536-8.743-4.409-12.831A46.154,46.154,0,0,1,73.977,143.2a39.8,39.8,0,0,1,5.2-14.951c4.561-7.475,9.141-16.01,1.779-24.81-1.438.416-3.2.927-5.015,1.438-3.123,12-6.169,23.826-9.292,35.635a42.9,42.9,0,0,0,.3,24.129,42.994,42.994,0,0,1,1.079,4.618c2.385,12.6,8.97,23.5,14.175,34.954C82.342,204.556,82.947,204.67,84.083,205.294Z" transform="matrix(0.97, 0.26, -0.26, 0.97, 71.16, 6)" fill="url(#radial-gradient)"/>
    </g>
  </g>
</svg>
