<svg xmlns="http://www.w3.org/2000/svg" width="984" height="210.001" viewBox="0 0 984 210.001">
  <path id="Exclusion_1" data-name="Exclusion 1" d="M984,210H0V0H984V210Zm-98.31-55.427a27.217,27.217,0,0,0,2.2,10.963,14.446,14.446,0,0,0,6.067,6.64,32.988,32.988,0,0,0,9.3,3.358,58.017,58.017,0,0,0,11.895,1.12c7.121,0,13.112-.817,17.807-2.427A24.853,24.853,0,0,0,944,167.187c2.631-3.062,4.183-6.005,4.614-8.75s.649-8.9.649-18.286V70.287h-25.7l-1.982,6.836a22.576,22.576,0,0,0-7.622-6.358,21.118,21.118,0,0,0-9.468-2.119,22.293,22.293,0,0,0-8.289,1.418,14.4,14.4,0,0,0-5.862,4.255,18.974,18.974,0,0,0-3.486,7.486,46.514,46.514,0,0,0-1.162,11.108v32.949c0,5.986.6,10.666,1.777,13.911a15.459,15.459,0,0,0,6.6,7.9c3.2,2,7.326,3.008,12.271,3.008a21.273,21.273,0,0,0,8.237-1.641,26.394,26.394,0,0,0,7.485-4.854v6.835c0,3.9-.345,6.5-1.025,7.725s-2.084,1.846-4.17,1.846a3.809,3.809,0,0,1-3.281-1.5,7.7,7.7,0,0,1-1.094-4.512ZM71.392,48a42.637,42.637,0,0,0-11.664,1.5,28.9,28.9,0,0,0-9.288,4.486,31.056,31.056,0,0,0-6.5,6.28,18.823,18.823,0,0,0-3.307,6.879C39.5,71.9,38.922,79.654,38.922,90.18v32.881a131.632,131.632,0,0,0,.82,17.124,27.756,27.756,0,0,0,4.1,10.9,26.092,26.092,0,0,0,9.6,8.717,27.585,27.585,0,0,0,13.569,3.52,20.992,20.992,0,0,0,10.561-2.563A20.2,20.2,0,0,0,85,153.07L87.662,161h18.115V101.6h-33.7v16.816h5.811v13.125c0,5.126-.379,8.621-1.128,10.391a4.24,4.24,0,0,1-4.273,2.667,3.741,3.741,0,0,1-3.828-2.359c-.635-1.564-.957-4.865-.957-9.809V79.311c0-5.625.322-9.167.957-10.527a3.633,3.633,0,0,1,3.622-2.051c2.041,0,3.352.805,3.9,2.393S77,74.713,77,81.02V91.068h28.779V86.283c0-9.029-.851-16.009-2.529-20.747a20.377,20.377,0,0,0-3.982-6.657A30.891,30.891,0,0,0,92.379,53.2a32.543,32.543,0,0,0-9.416-3.9A48.373,48.373,0,0,0,71.392,48ZM575.2,84.711a3.651,3.651,0,0,1,3.521,2.154c.7,1.428,1.059,4.545,1.059,9.263,0,3.766-.322,6.3-.957,7.52s-5.534,3.639-14.56,7.177c-8.437,3.266-13.8,6.164-15.928,8.613a12.265,12.265,0,0,0-2.41,5.315,38.858,38.858,0,0,0-.8,8.562v7.451a35.922,35.922,0,0,0,1.513,11.322,12.255,12.255,0,0,0,4.537,6.485,23.438,23.438,0,0,0,13.3,4.068,16.856,16.856,0,0,0,16.065-9.708V161H607.4V115.473c0-14.921-.483-24.915-1.436-29.7a17.416,17.416,0,0,0-2.854-6.648,22.811,22.811,0,0,0-5.691-5.52,25.616,25.616,0,0,0-8.836-3.717A54.448,54.448,0,0,0,576.3,68.647a47.551,47.551,0,0,0-10.6,1.094,29.02,29.02,0,0,0-8.408,3.281A29.513,29.513,0,0,0,551.2,77.73,17.815,17.815,0,0,0,547.55,83.1c-1.611,3.787-2.427,9.25-2.427,16.236v6.084h25.908v-9.5c0-5.035.23-8.2.684-9.4S573.341,84.711,575.2,84.711Zm-247.6,0a3.651,3.651,0,0,1,3.521,2.154c.7,1.43,1.059,4.547,1.059,9.263,0,3.764-.322,6.294-.957,7.52s-5.534,3.639-14.561,7.177c-8.436,3.266-13.8,6.164-15.927,8.613a12.265,12.265,0,0,0-2.41,5.315,38.854,38.854,0,0,0-.8,8.562v7.451a35.928,35.928,0,0,0,1.512,11.322,12.253,12.253,0,0,0,4.538,6.485,23.434,23.434,0,0,0,13.3,4.068,16.853,16.853,0,0,0,16.064-9.708V161H359.8V115.473c0-14.922-.483-24.915-1.435-29.7a17.424,17.424,0,0,0-2.855-6.648,22.819,22.819,0,0,0-5.691-5.52,25.613,25.613,0,0,0-8.835-3.717A54.449,54.449,0,0,0,328.7,68.647a47.545,47.545,0,0,0-10.6,1.094,29.023,29.023,0,0,0-8.408,3.281A29.524,29.524,0,0,0,303.6,77.73a17.828,17.828,0,0,0-3.649,5.375c-1.61,3.788-2.426,9.251-2.426,16.236v6.084h25.908v-9.5c0-5.035.23-8.2.683-9.4S325.744,84.711,327.6,84.711Zm-73.965,69.453v0a24.141,24.141,0,0,0,7.689,6.356,19.927,19.927,0,0,0,9.057,2.119,19.384,19.384,0,0,0,11.689-3.589,15.655,15.655,0,0,0,6.255-8.476c.885-3.245,1.333-8.247,1.333-14.868V94.828a118.67,118.67,0,0,0-.445-13.126,15.163,15.163,0,0,0-2.632-6.289,14.2,14.2,0,0,0-6.358-4.99,25.092,25.092,0,0,0-9.843-1.777,21.525,21.525,0,0,0-9.126,1.949,22.765,22.765,0,0,0-7.622,5.913V50.326H226.021V161h25.84l1.777-6.835ZM184.39,68.647a44,44,0,0,0-10.083,1.077,28.094,28.094,0,0,0-8.1,3.23,24.994,24.994,0,0,0-6.016,5.007,21.719,21.719,0,0,0-3.828,6.409c-1.814,4.719-2.734,11.366-2.734,19.756v23.243c0,7.666.506,13.5,1.5,17.33a24.155,24.155,0,0,0,5.024,9.843,21.244,21.244,0,0,0,9.878,6.084,52.054,52.054,0,0,0,15.518,2.017,41.6,41.6,0,0,0,14.526-2.359,23.877,23.877,0,0,0,10.356-7.314A25.306,25.306,0,0,0,215.7,142.3c.816-3.788,1.23-9.826,1.23-17.944V102.143c0-6.395-.448-11.225-1.333-14.356a25.021,25.021,0,0,0-15.244-16.372A41.711,41.711,0,0,0,184.39,68.647ZM845.357,84.711c1.859,0,3.009.69,3.418,2.051s.615,5.2.615,11.415V161h27.617V97.426c0-7.892-.437-13.608-1.3-16.988A14.963,14.963,0,0,0,869.9,72c-2.993-2.223-6.9-3.35-11.622-3.35a19.826,19.826,0,0,0-10.014,2.495,20.785,20.785,0,0,0-7.348,7.485l.479-8.339H813.3V161h27.617V99.681c0-6.8.253-11.048.752-12.612S843.407,84.711,845.357,84.711ZM774.947,70.287V161h28.438V70.287ZM734.2,84.711a3.481,3.481,0,0,1,3.658,2.768c.521,1.837.786,6.679.786,14.39V161h26.8V96.537c0-7.394-.437-12.81-1.3-16.1a15.112,15.112,0,0,0-5.913-8.373,19.139,19.139,0,0,0-11.656-3.418,18.928,18.928,0,0,0-9.707,2.563,24.991,24.991,0,0,0-7.862,7.69,22.37,22.37,0,0,0-7.537-7.69,19.234,19.234,0,0,0-9.9-2.564,19.962,19.962,0,0,0-10.117,2.563A22.362,22.362,0,0,0,693.8,78.9l.479-8.613H667.008V161h26.8V98.109c0-4.351.046-7.237.137-8.579a5.433,5.433,0,0,1,1.435-3.418,4.149,4.149,0,0,1,3.145-1.4,3.3,3.3,0,0,1,3.589,2.667c.43,1.767.649,7.149.649,16V161h26.8V101.869c0-7.756.288-12.609.855-14.424A3.623,3.623,0,0,1,734.2,84.711ZM616.9,70.287V161h27.617V125.18c0-8.757.276-14.427.82-16.851a8.646,8.646,0,0,1,4.375-5.709c2.358-1.36,6.107-2.05,11.143-2.05V68.647a18.038,18.038,0,0,0-10.066,3.76,26.308,26.308,0,0,0-7.366,9.775l1.094-11.894ZM484.009,103.039h0c2.495,21.546,5.415,41.046,8.68,57.961h35.957L541.432,50.326H513.473c-3.718,25.484-6.41,51.911-8,78.545L502.33,86.83c-1.678-20.994-2.736-33.276-3.145-36.5H469.244c-4.218,31.163-6.886,56.692-7.929,75.879l-3.008-37.256-2.939-38.623H427.408L440.26,161h35.752C480.185,131.735,482.876,112.234,484.009,103.039ZM369.3,50.326V161h28.438V50.326Zm-253.2,0V161h28.437V50.326Zm658.847,0V64.75h28.438V50.326Zm-199.336,96.25a3.621,3.621,0,0,1-3.657-2.05c-.613-1.361-.923-4.42-.923-9.092A32.494,32.494,0,0,1,572.09,126c.7-2.176,3.29-4.913,7.69-8.135v18.663c0,4.537-.264,7.377-.786,8.442S577.335,146.576,575.611,146.576Zm-247.6,0a3.623,3.623,0,0,1-3.658-2.05c-.612-1.36-.923-4.419-.923-9.092A32.466,32.466,0,0,1,324.493,126c.7-2.177,3.29-4.914,7.69-8.135v18.663c0,4.537-.265,7.378-.787,8.442S329.738,146.576,328.014,146.576Zm-70.137,0a3.321,3.321,0,0,1-3.384-2.05c-.567-1.36-.854-4.511-.854-9.365v-39.1c0-5.035.253-8.221.752-9.468a3.155,3.155,0,0,1,3.281-1.88,3.427,3.427,0,0,1,3.487,2.154c.589,1.429.888,4.522.888,9.194v38.213c0,5.352-.264,8.779-.786,10.185A3.242,3.242,0,0,1,257.877,146.576Zm-72.6,0a3.163,3.163,0,0,1-3.213-1.948c-.544-1.291-.82-4.109-.82-8.375V95.306c0-4.628.276-7.583.82-8.784a3.25,3.25,0,0,1,3.281-1.812,3.113,3.113,0,0,1,3.213,1.812c.5,1.2.751,4.157.751,8.784v41.836c0,3.9-.264,6.476-.786,7.656A3.192,3.192,0,0,1,185.279,146.576ZM917.2,134.545a3.056,3.056,0,0,1-3.145-1.811c-.5-1.2-.753-3.859-.753-7.9V94.35c0-3.81.333-6.4.991-7.69a3.5,3.5,0,0,1,3.384-1.949c1.633,0,2.7.575,3.179,1.709s.718,3.8.718,7.93v28.1c0,5.126-.276,8.461-.821,9.913A3.4,3.4,0,0,1,917.2,134.545Z" fill="#fff"/>
</svg>
